<svg width="212" height="26" viewBox="0 0 212 26" fill="none" xmlns="http://www.w3.org/2000/svg">
<path d="M21.5568 9.875H16.5795C16.4886 9.23106 16.303 8.65909 16.0227 8.15909C15.7424 7.65151 15.3826 7.2197 14.9432 6.86364C14.5038 6.50757 13.9962 6.23485 13.4205 6.04545C12.8523 5.85606 12.2348 5.76136 11.5682 5.76136C10.3636 5.76136 9.31439 6.06061 8.42045 6.65909C7.52652 7.25 6.83333 8.11364 6.34091 9.25C5.84849 10.3788 5.60227 11.75 5.60227 13.3636C5.60227 15.0227 5.84849 16.4167 6.34091 17.5455C6.84091 18.6742 7.53788 19.5265 8.43182 20.1023C9.32576 20.678 10.3598 20.9659 11.5341 20.9659C12.1932 20.9659 12.803 20.8788 13.3636 20.7045C13.9318 20.5303 14.4356 20.2765 14.875 19.9432C15.3144 19.6023 15.678 19.1894 15.9659 18.7045C16.2614 18.2197 16.4659 17.6667 16.5795 17.0455L21.5568 17.0682C21.428 18.1364 21.1061 19.1667 20.5909 20.1591C20.0833 21.1439 19.3977 22.0265 18.5341 22.8068C17.678 23.5795 16.6553 24.1932 15.4659 24.6477C14.2841 25.0947 12.947 25.3182 11.4545 25.3182C9.37879 25.3182 7.52273 24.8485 5.88636 23.9091C4.25758 22.9697 2.9697 21.6098 2.02273 19.8295C1.08333 18.0492 0.613636 15.8939 0.613636 13.3636C0.613636 10.8258 1.09091 8.66667 2.04545 6.88636C3 5.10606 4.29545 3.75 5.93182 2.81818C7.56818 1.87879 9.40909 1.40909 11.4545 1.40909C12.803 1.40909 14.053 1.59848 15.2045 1.97727C16.3636 2.35606 17.3902 2.90909 18.2841 3.63636C19.178 4.35606 19.9053 5.23864 20.4659 6.28409C21.0341 7.32954 21.3977 8.52651 21.5568 9.875ZM29.8352 1.72727V25H24.9943V1.72727H29.8352ZM33.7131 25V7.54545H38.554V25H33.7131ZM36.1449 5.29545C35.4252 5.29545 34.8078 5.05682 34.2926 4.57954C33.785 4.0947 33.5312 3.51515 33.5312 2.84091C33.5312 2.17424 33.785 1.60227 34.2926 1.125C34.8078 0.640151 35.4252 0.397726 36.1449 0.397726C36.8646 0.397726 37.4782 0.640151 37.9858 1.125C38.5009 1.60227 38.7585 2.17424 38.7585 2.84091C38.7585 3.51515 38.5009 4.0947 37.9858 4.57954C37.4782 5.05682 36.8646 5.29545 36.1449 5.29545ZM42.4318 25V7.54545H47.0455V10.625H47.25C47.6136 9.60227 48.2197 8.79545 49.0682 8.20454C49.9167 7.61364 50.9318 7.31818 52.1136 7.31818C53.3106 7.31818 54.3295 7.61742 55.1705 8.21591C56.0114 8.80682 56.572 9.60985 56.8523 10.625H57.0341C57.3902 9.625 58.0341 8.82576 58.9659 8.22727C59.9053 7.62121 61.0152 7.31818 62.2955 7.31818C63.9242 7.31818 65.2462 7.83712 66.2614 8.875C67.2841 9.9053 67.7955 11.3674 67.7955 13.2614V25H62.9659V14.2159C62.9659 13.2462 62.7083 12.5189 62.1932 12.0341C61.678 11.5492 61.0341 11.3068 60.2614 11.3068C59.3826 11.3068 58.697 11.5871 58.2045 12.1477C57.7121 12.7008 57.4659 13.4318 57.4659 14.3409V25H52.7727V14.1136C52.7727 13.2576 52.5265 12.5758 52.0341 12.0682C51.5492 11.5606 50.9091 11.3068 50.1136 11.3068C49.5758 11.3068 49.0909 11.4432 48.6591 11.7159C48.2348 11.9811 47.8977 12.3561 47.6477 12.8409C47.3977 13.3182 47.2727 13.8788 47.2727 14.5227V25H42.4318ZM76.5966 25.3295C75.483 25.3295 74.4905 25.1364 73.6193 24.75C72.7481 24.3561 72.0587 23.7765 71.5511 23.0114C71.0511 22.2386 70.8011 21.2765 70.8011 20.125C70.8011 19.1553 70.9792 18.3409 71.3352 17.6818C71.6913 17.0227 72.1761 16.4924 72.7898 16.0909C73.4034 15.6894 74.1004 15.3864 74.8807 15.1818C75.6686 14.9773 76.4943 14.8333 77.358 14.75C78.3731 14.6439 79.1913 14.5455 79.8125 14.4545C80.4337 14.3561 80.8845 14.2121 81.1648 14.0227C81.4451 13.8333 81.5852 13.553 81.5852 13.1818V13.1136C81.5852 12.3939 81.358 11.8371 80.9034 11.4432C80.4564 11.0492 79.8201 10.8523 78.9943 10.8523C78.1231 10.8523 77.4299 11.0455 76.9148 11.4318C76.3996 11.8106 76.0587 12.2879 75.892 12.8636L71.4148 12.5C71.642 11.4394 72.089 10.5227 72.7557 9.75C73.4223 8.9697 74.2822 8.37121 75.3352 7.95454C76.3958 7.5303 77.6231 7.31818 79.017 7.31818C79.9867 7.31818 80.9148 7.43182 81.8011 7.65909C82.6951 7.88636 83.4867 8.23864 84.1761 8.71591C84.8731 9.19318 85.4223 9.80682 85.8239 10.5568C86.2254 11.2992 86.4261 12.1894 86.4261 13.2273V25H81.8352V22.5795H81.6989C81.4186 23.125 81.0436 23.6061 80.5739 24.0227C80.1042 24.4318 79.5398 24.7538 78.8807 24.9886C78.2216 25.2159 77.4602 25.3295 76.5966 25.3295ZM77.983 21.9886C78.6951 21.9886 79.3239 21.8485 79.8693 21.5682C80.4148 21.2803 80.8428 20.8939 81.1534 20.4091C81.464 19.9242 81.6193 19.375 81.6193 18.7614V16.9091C81.4678 17.0076 81.2595 17.0985 80.9943 17.1818C80.7367 17.2576 80.4451 17.3295 80.1193 17.3977C79.7936 17.4583 79.4678 17.5152 79.142 17.5682C78.8163 17.6136 78.5208 17.6553 78.2557 17.6932C77.6875 17.7765 77.1913 17.9091 76.767 18.0909C76.3428 18.2727 76.0133 18.5189 75.7784 18.8295C75.5436 19.1326 75.4261 19.5114 75.4261 19.9659C75.4261 20.625 75.6648 21.1288 76.142 21.4773C76.6269 21.8182 77.2405 21.9886 77.983 21.9886ZM99.4659 7.54545V11.1818H88.9545V7.54545H99.4659ZM91.3409 3.36364H96.1818V19.6364C96.1818 20.0833 96.25 20.4318 96.3864 20.6818C96.5227 20.9242 96.7121 21.0947 96.9545 21.1932C97.2045 21.2917 97.4924 21.3409 97.8182 21.3409C98.0455 21.3409 98.2727 21.322 98.5 21.2841C98.7273 21.2386 98.9015 21.2045 99.0227 21.1818L99.7841 24.7841C99.5417 24.8598 99.2008 24.947 98.7614 25.0455C98.322 25.1515 97.7879 25.2159 97.1591 25.2386C95.9924 25.2841 94.9697 25.1288 94.0909 24.7727C93.2197 24.4167 92.5417 23.8636 92.0568 23.1136C91.572 22.3636 91.3333 21.4167 91.3409 20.2727V3.36364ZM102.619 25V7.54545H107.46V25H102.619ZM105.051 5.29545C104.331 5.29545 103.714 5.05682 103.199 4.57954C102.691 4.0947 102.438 3.51515 102.438 2.84091C102.438 2.17424 102.691 1.60227 103.199 1.125C103.714 0.640151 104.331 0.397726 105.051 0.397726C105.771 0.397726 106.384 0.640151 106.892 1.125C107.407 1.60227 107.665 2.17424 107.665 2.84091C107.665 3.51515 107.407 4.0947 106.892 4.57954C106.384 5.05682 105.771 5.29545 105.051 5.29545ZM111.247 25V22.1136L119.793 11.5341V11.4091H111.543V7.54545H125.622V10.6932L117.599 21.0114V21.1364H125.918V25H111.247ZM134.597 25.3295C133.483 25.3295 132.491 25.1364 131.619 24.75C130.748 24.3561 130.059 23.7765 129.551 23.0114C129.051 22.2386 128.801 21.2765 128.801 20.125C128.801 19.1553 128.979 18.3409 129.335 17.6818C129.691 17.0227 130.176 16.4924 130.79 16.0909C131.403 15.6894 132.1 15.3864 132.881 15.1818C133.669 14.9773 134.494 14.8333 135.358 14.75C136.373 14.6439 137.191 14.5455 137.812 14.4545C138.434 14.3561 138.884 14.2121 139.165 14.0227C139.445 13.8333 139.585 13.553 139.585 13.1818V13.1136C139.585 12.3939 139.358 11.8371 138.903 11.4432C138.456 11.0492 137.82 10.8523 136.994 10.8523C136.123 10.8523 135.43 11.0455 134.915 11.4318C134.4 11.8106 134.059 12.2879 133.892 12.8636L129.415 12.5C129.642 11.4394 130.089 10.5227 130.756 9.75C131.422 8.9697 132.282 8.37121 133.335 7.95454C134.396 7.5303 135.623 7.31818 137.017 7.31818C137.987 7.31818 138.915 7.43182 139.801 7.65909C140.695 7.88636 141.487 8.23864 142.176 8.71591C142.873 9.19318 143.422 9.80682 143.824 10.5568C144.225 11.2992 144.426 12.1894 144.426 13.2273V25H139.835V22.5795H139.699C139.419 23.125 139.044 23.6061 138.574 24.0227C138.104 24.4318 137.54 24.7538 136.881 24.9886C136.222 25.2159 135.46 25.3295 134.597 25.3295ZM135.983 21.9886C136.695 21.9886 137.324 21.8485 137.869 21.5682C138.415 21.2803 138.843 20.8939 139.153 20.4091C139.464 19.9242 139.619 19.375 139.619 18.7614V16.9091C139.468 17.0076 139.259 17.0985 138.994 17.1818C138.737 17.2576 138.445 17.3295 138.119 17.3977C137.794 17.4583 137.468 17.5152 137.142 17.5682C136.816 17.6136 136.521 17.6553 136.256 17.6932C135.688 17.7765 135.191 17.9091 134.767 18.0909C134.343 18.2727 134.013 18.5189 133.778 18.8295C133.544 19.1326 133.426 19.5114 133.426 19.9659C133.426 20.625 133.665 21.1288 134.142 21.4773C134.627 21.8182 135.241 21.9886 135.983 21.9886ZM148.182 25V7.54545H152.875V10.5909H153.057C153.375 9.50758 153.909 8.68939 154.659 8.13636C155.409 7.57576 156.273 7.29545 157.25 7.29545C157.492 7.29545 157.754 7.31061 158.034 7.34091C158.314 7.37121 158.561 7.41288 158.773 7.46591V11.7614C158.545 11.6932 158.231 11.6326 157.83 11.5795C157.428 11.5265 157.061 11.5 156.727 11.5C156.015 11.5 155.379 11.6553 154.818 11.9659C154.265 12.2689 153.826 12.6932 153.5 13.2386C153.182 13.7841 153.023 14.4129 153.023 15.125V25H148.182ZM161.366 25V1.72727H170.685C172.397 1.72727 173.825 1.98106 174.969 2.48864C176.113 2.99621 176.973 3.70076 177.548 4.60227C178.124 5.49621 178.412 6.52652 178.412 7.69318C178.412 8.60227 178.23 9.40152 177.866 10.0909C177.503 10.7727 177.003 11.3333 176.366 11.7727C175.738 12.2045 175.018 12.5114 174.207 12.6932V12.9205C175.094 12.9583 175.923 13.2083 176.696 13.6705C177.476 14.1326 178.109 14.7803 178.594 15.6136C179.079 16.4394 179.321 17.4242 179.321 18.5682C179.321 19.803 179.014 20.9053 178.401 21.875C177.795 22.8371 176.897 23.5985 175.707 24.1591C174.518 24.7197 173.052 25 171.31 25H161.366ZM166.287 20.9773H170.298C171.67 20.9773 172.67 20.7159 173.298 20.1932C173.927 19.6629 174.241 18.9583 174.241 18.0795C174.241 17.4356 174.086 16.8674 173.776 16.375C173.465 15.8826 173.022 15.4962 172.446 15.2159C171.878 14.9356 171.2 14.7955 170.412 14.7955H166.287V20.9773ZM166.287 11.4659H169.935C170.609 11.4659 171.207 11.3485 171.73 11.1136C172.26 10.8712 172.677 10.5303 172.98 10.0909C173.291 9.65152 173.446 9.125 173.446 8.51136C173.446 7.67045 173.147 6.99242 172.548 6.47727C171.957 5.96212 171.116 5.70454 170.026 5.70454H166.287V11.4659ZM182.432 25V7.54545H187.125V10.5909H187.307C187.625 9.50758 188.159 8.68939 188.909 8.13636C189.659 7.57576 190.523 7.29545 191.5 7.29545C191.742 7.29545 192.004 7.31061 192.284 7.34091C192.564 7.37121 192.811 7.41288 193.023 7.46591V11.7614C192.795 11.6932 192.481 11.6326 192.08 11.5795C191.678 11.5265 191.311 11.5 190.977 11.5C190.265 11.5 189.629 11.6553 189.068 11.9659C188.515 12.2689 188.076 12.6932 187.75 13.2386C187.432 13.7841 187.273 14.4129 187.273 15.125V25H182.432ZM202.599 25.3409C200.834 25.3409 199.308 24.9659 198.02 24.2159C196.74 23.4583 195.751 22.4053 195.054 21.0568C194.357 19.7008 194.009 18.1288 194.009 16.3409C194.009 14.5379 194.357 12.9621 195.054 11.6136C195.751 10.2576 196.74 9.20454 198.02 8.45454C199.308 7.69697 200.834 7.31818 202.599 7.31818C204.365 7.31818 205.887 7.69697 207.168 8.45454C208.455 9.20454 209.448 10.2576 210.145 11.6136C210.842 12.9621 211.19 14.5379 211.19 16.3409C211.19 18.1288 210.842 19.7008 210.145 21.0568C209.448 22.4053 208.455 23.4583 207.168 24.2159C205.887 24.9659 204.365 25.3409 202.599 25.3409ZM202.622 21.5909C203.425 21.5909 204.096 21.3636 204.634 20.9091C205.171 20.447 205.577 19.8182 205.849 19.0227C206.13 18.2273 206.27 17.322 206.27 16.3068C206.27 15.2917 206.13 14.3864 205.849 13.5909C205.577 12.7955 205.171 12.1667 204.634 11.7045C204.096 11.2424 203.425 11.0114 202.622 11.0114C201.812 11.0114 201.13 11.2424 200.577 11.7045C200.031 12.1667 199.618 12.7955 199.338 13.5909C199.065 14.3864 198.929 15.2917 198.929 16.3068C198.929 17.322 199.065 18.2273 199.338 19.0227C199.618 19.8182 200.031 20.447 200.577 20.9091C201.13 21.3636 201.812 21.5909 202.622 21.5909Z" fill="#003472"/>
</svg>
