<svg width="25" height="26" viewBox="0 0 25 26" fill="none" xmlns="http://www.w3.org/2000/svg">
<path d="M12.5 8.9044C10.4283 8.9044 8.74999 10.6129 8.74999 12.7206C8.74999 14.8288 10.4289 16.5367 12.5 16.5367C14.5716 16.5367 16.25 14.8282 16.25 12.7206C16.25 10.6124 14.5711 8.9044 12.5 8.9044ZM12.5 6.36029C15.9505 6.36029 18.75 9.20601 18.75 12.7206C18.75 16.2321 15.9536 19.0809 12.5 19.0809C9.04941 19.0809 6.24999 16.2351 6.24999 12.7206C6.24999 9.2091 9.04637 6.36029 12.5 6.36029ZM20.625 6.04119C20.625 6.91905 19.924 7.63129 19.0625 7.63129C18.1999 7.63129 17.5 6.91796 17.5 6.04119C17.5 5.16443 18.2009 4.4522 19.0625 4.4522C19.9229 4.4511 20.625 5.16443 20.625 6.04119ZM12.5 2.54412C9.40689 2.54412 8.90274 2.55245 7.46411 2.61764C6.48396 2.66446 5.82693 2.79862 5.21647 3.0398C4.67397 3.25391 4.28263 3.50958 3.86567 3.9339C3.44711 4.35985 3.19632 4.75703 2.98677 5.30935C2.74922 5.93201 2.61744 6.59958 2.57225 7.59565C2.50756 9.00006 2.5 9.49089 2.5 12.7206C2.5 15.8683 2.50819 16.3813 2.57224 17.8452C2.61827 18.8422 2.75027 19.5118 2.9867 20.1316C3.19765 20.6844 3.4494 21.0836 3.86435 21.5059C4.28456 21.9329 4.67601 22.189 5.21361 22.4002C5.83151 22.6433 6.48812 22.7776 7.46392 22.8235C8.84399 22.8893 9.3263 22.897 12.5 22.897C15.5931 22.897 16.0973 22.8886 17.5358 22.8235C18.5134 22.7768 19.1719 22.6421 19.7825 22.4017C20.3243 22.1876 20.7178 21.9305 21.133 21.5086C21.5533 21.0803 21.8044 20.6829 22.0121 20.1345C22.2504 19.508 22.3826 18.8389 22.4278 17.8456C22.4924 16.4411 22.5 15.9502 22.5 12.7206C22.5 9.5729 22.4918 9.05986 22.4278 7.59593C22.3818 6.60078 22.2494 5.92968 22.0129 5.30853C21.803 4.75798 21.5509 4.35851 21.1343 3.9339C20.715 3.50725 20.3258 3.25256 19.7826 3.03948C19.1713 2.79794 18.5143 2.66364 17.536 2.61765C16.156 2.55181 15.6736 2.54412 12.5 2.54412ZM12.5 0C15.8958 0 16.3198 0.0127205 17.6531 0.0763234C18.9833 0.13887 19.8906 0.352996 20.6875 0.66783C21.5114 0.991149 22.2073 1.42788 22.902 2.13493C23.5958 2.84199 24.025 3.55222 24.3438 4.3886C24.652 5.19848 24.8625 6.12283 24.925 7.47652C24.9844 8.83338 25 9.26482 25 12.7206C25 16.1764 24.9875 16.6077 24.925 17.9646C24.8635 19.3184 24.652 20.2416 24.3438 21.0526C24.026 21.8911 23.5958 22.5991 22.902 23.3063C22.2073 24.0122 21.5083 24.4489 20.6875 24.7733C19.8906 25.0871 18.9833 25.3012 17.6531 25.3648C16.3198 25.4253 15.8958 25.4412 12.5 25.4412C9.10415 25.4412 8.68019 25.4284 7.34687 25.3648C6.01666 25.3022 5.11041 25.0871 4.3125 24.7733C3.48957 24.45 2.7927 24.0122 2.09791 23.3063C1.40312 22.5991 0.974999 21.8879 0.656249 21.0526C0.346875 20.2416 0.1375 19.3184 0.0750002 17.9646C0.0156252 16.6077 0 16.1764 0 12.7206C0 9.26482 0.0125002 8.83338 0.0750002 7.47652C0.13645 6.12178 0.346875 5.19954 0.656249 4.3886C0.973949 3.55116 1.40312 2.84199 2.09791 2.13493C2.7927 1.42788 3.49062 0.992205 4.3125 0.66783C5.10937 0.352996 6.01562 0.139926 7.34687 0.0763234C8.68019 0.0159006 9.10415 0 12.5 0Z" fill="white"/>
</svg>
