<svg width="25" height="26" viewBox="0 0 25 26" fill="none" xmlns="http://www.w3.org/2000/svg">
<path d="M6.56578 20.9818L7.47169 21.5194C8.98513 22.4175 10.7051 22.8971 12.5 22.8971C18.0229 22.8971 22.5 18.3409 22.5 12.7206C22.5 7.10028 18.0229 2.54412 12.5 2.54412C6.97714 2.54412 2.5 7.10028 2.5 12.7206C2.5 14.5476 2.97153 16.2986 3.8546 17.8391L4.38257 18.7601L3.56571 21.815L6.56578 20.9818ZM0.00522524 25.4412L1.69517 19.121C0.617449 17.241 0 15.0542 0 12.7206C0 5.6952 5.59643 0 12.5 0C19.4035 0 25 5.6952 25 12.7206C25 19.7459 19.4035 25.4412 12.5 25.4412C10.2076 25.4412 8.05941 24.8133 6.21234 23.7172L0.00522524 25.4412ZM7.98917 6.75251C8.15652 6.74054 8.32443 6.73871 8.492 6.74703C8.5597 6.75155 8.62708 6.75952 8.6945 6.76744C8.89358 6.79084 9.11249 6.91421 9.18609 7.08402C9.55899 7.94447 9.92082 8.80983 10.2715 9.6799C10.3489 9.87197 10.3023 10.1209 10.155 10.3618C10.0803 10.4853 9.96287 10.6586 9.82687 10.8358C9.6855 11.0198 9.38125 11.3583 9.38125 11.3583C9.38125 11.3583 9.25799 11.5087 9.30445 11.6958C9.32255 11.7665 9.38028 11.8696 9.43262 11.9562C9.4616 12.0042 9.48852 12.047 9.50598 12.0767C9.82588 12.6202 10.2559 13.1713 10.7811 13.6894C10.9316 13.8378 11.0776 13.9893 11.2346 14.13C11.82 14.6553 12.4823 15.0845 13.1975 15.4023L13.2039 15.4053C13.3095 15.4516 13.3638 15.4769 13.5184 15.5437C13.5964 15.5773 13.6761 15.6063 13.758 15.6283C13.7876 15.6361 13.818 15.6406 13.8485 15.6428C14.0506 15.6551 14.1675 15.5232 14.2174 15.4625C15.1218 14.3476 15.2045 14.2748 15.2108 14.2753V14.2773C15.3296 14.1499 15.5165 14.1056 15.6833 14.116C15.7594 14.1207 15.8351 14.1356 15.9044 14.1678C16.5691 14.4764 17.656 14.9578 17.656 14.9578L18.3829 15.2903C18.5046 15.3501 18.6158 15.4909 18.6211 15.6278C18.6244 15.7129 18.6334 15.8502 18.6035 16.1016C18.5644 16.4307 18.466 16.8269 18.3683 17.0345C18.2995 17.1802 18.2105 17.3094 18.107 17.4188C17.9666 17.5671 17.8624 17.6572 17.6936 17.7852C17.5909 17.863 17.5376 17.8997 17.5376 17.8997C17.364 18.0111 17.2661 18.0668 17.0593 18.1789C16.7375 18.3533 16.382 18.4535 16.0179 18.4726C15.7858 18.4847 15.5543 18.5017 15.3224 18.489C15.3121 18.4884 14.6121 18.379 14.6121 18.379C12.8348 17.9032 11.191 17.012 9.81169 15.7761C9.52968 15.5234 9.26814 15.2501 9.00119 14.9796C7.88987 13.8537 7.04854 12.6397 6.53838 11.4913C6.28681 10.925 6.12751 10.3184 6.12499 9.69434C6.12038 8.92229 6.36876 8.17069 6.83088 7.5584C6.92198 7.43769 7.00844 7.31249 7.15763 7.16915C7.31562 7.01733 7.41617 6.93582 7.52448 6.87943C7.66885 6.80427 7.82743 6.76407 7.98917 6.75251Z" fill="white"/>
</svg>
